<svg width="52" height="52" viewBox="0 0 52 52" fill="none" xmlns="http://www.w3.org/2000/svg">
<path d="M32.4665 4.50174L28.1455 4.87243C27.9195 4.89182 27.7108 4.75998 27.6432 4.55945C27.3452 3.67494 26.7682 2.16722 26.1619 1.21363C25.5056 0.181377 24.3676 3.12629 23.7949 4.99369C23.7366 5.18394 23.5505 5.31579 23.3368 5.32186C22.5116 5.34531 21.027 5.44607 19.6409 5.72635C17.6122 6.1366 20.9451 7.91433 22.1044 9.00833C23.2637 10.1023 19.9307 12.974 20.6553 14.615C21.3798 16.256 24.8577 12.1536 25.7272 11.6066C26.5966 11.0596 29.7847 14.4783 31.0889 14.615C32.3931 14.7518 30.3643 10.2391 29.7847 9.00833C29.4271 8.24917 31.2291 6.57408 32.8258 5.32444C33.1899 5.03945 32.9414 4.461 32.4665 4.50174Z" stroke="#3B82F6" stroke-width="2"/>
<path d="M49.8333 33.9773V48.1222C49.8333 48.3076 49.6722 48.4599 49.4687 48.4666L8.21954 49.8333M49.8333 33.9773L42.3203 31.9236C42.2851 31.914 42.2484 31.9091 42.2116 31.9091L35.903 32.3457M49.8333 33.9773L35.8358 34.6729M8.21954 49.8333V36.0455M8.21954 49.8333L7.78069 49.6834M8.21954 36.0455L21.8386 35.3686M8.21954 36.0455L7.78069 35.8955M35.903 32.3457L35.8358 34.6729M35.903 32.3457L36.2142 21.5682M35.4576 47.7651L35.8358 34.6729M35.8358 34.6729L21.8386 35.3686M36.2142 21.5682H21.8386M36.2142 21.5682L29.463 19.5177C29.4244 19.506 29.384 19.5 29.3433 19.5H15.7857M21.8386 21.5682V35.3686M21.8386 21.5682L21.6044 21.4882M15.7857 19.5L15.0291 32.5985M15.7857 19.5L16.2785 19.6684M15.0291 32.5985L2.16663 33.9773M15.0291 32.5985L15.5824 32.8236M21.8386 35.3686V48.4545M21.8386 35.3686L21.2404 35.1253M2.16663 33.9773V47.5263C2.16663 47.67 2.26445 47.7986 2.4121 47.849L2.73905 47.9607M2.16663 33.9773L2.73905 34.1729M16.2785 19.6684L15.5824 32.8236M16.2785 19.6684L16.9067 19.8831M15.5824 32.8236L16.3014 33.1161M16.3014 33.1161L16.9067 19.8831M16.3014 33.1161L16.9471 33.3787M16.9067 19.8831L17.6297 20.1301M17.6297 20.1301L16.9471 33.3787M17.6297 20.1301L18.0555 20.2756M16.9471 33.3787L17.5775 33.6352M17.5775 33.6352L18.0555 20.2756M17.5775 33.6352L18.1208 33.8562M18.0555 20.2756L18.6969 20.4947M18.6969 20.4947L18.1208 33.8562M18.6969 20.4947L19.2487 20.6833M18.1208 33.8562L18.6524 34.0725M18.6524 34.0725L19.2487 20.6833M18.6524 34.0725L19.1329 34.2679M19.2487 20.6833L19.8209 20.8788M19.8209 20.8788L19.1329 34.2679M19.8209 20.8788L20.3254 21.0511M19.1329 34.2679L19.5687 34.4452M19.5687 34.4452L20.3254 21.0511M19.5687 34.4452L20.1131 34.6667M20.3254 21.0511L20.9019 21.2481M20.9019 21.2481L20.1131 34.6667M20.9019 21.2481L21.3703 21.4082M20.1131 34.6667L20.6423 34.8819M20.6423 34.8819L21.3703 21.4082M20.6423 34.8819L21.2404 35.1253M21.3703 21.4082L21.6044 21.4882M21.6044 21.4882L21.2404 35.1253M7.78069 49.6834V35.8955M7.78069 49.6834L7.313 49.5236M7.78069 35.8955L7.313 35.7357M7.313 35.7357V49.5236M7.313 35.7357L6.70631 35.5284M7.313 49.5236L6.70631 49.3163M6.70631 49.3163V35.5284M6.70631 49.3163L6.2019 49.1439M6.70631 35.5284L6.2019 35.3561M6.2019 35.3561V49.1439M6.2019 35.3561L5.54702 35.1323M6.2019 49.1439L5.54702 48.9202M5.54702 48.9202V35.1323M5.54702 48.9202L5.19308 48.7992M5.54702 35.1323L5.19308 35.0114M5.19308 35.0114V48.7992M5.19308 35.0114L4.62827 34.8184M5.19308 48.7992L4.62827 48.6063M4.62827 48.6063V34.8184M4.62827 48.6063L3.94363 48.3723M4.62827 34.8184L3.94363 34.5844M3.94363 34.5844V48.3723M3.94363 34.5844L3.31146 34.3684M3.94363 48.3723L3.31146 48.1563M3.31146 48.1563V34.3684M3.31146 48.1563L2.73905 47.9607M3.31146 34.3684L2.73905 34.1729M2.73905 34.1729V47.9607" stroke="black" stroke-width="2"/>
</svg>
