<svg width="145" height="110" viewBox="0 0 145 110" fill="none" xmlns="http://www.w3.org/2000/svg">
<path d="M46.151 8.60208C65.5254 5.61318 84.8873 22.6013 89.0593 47.0706C93.2311 71.5398 80.5061 93.4781 61.1317 96.467C41.7574 99.4556 22.3964 82.4673 18.2244 57.9983C14.0525 33.5291 26.7767 11.5911 46.151 8.60208Z" stroke="black" stroke-width="2"/>
<path d="M49.2641 18.2996C63.3834 16.1217 77.7428 29.0823 80.9461 47.8702C84.1495 66.6582 74.8323 83.2713 60.713 85.4498C46.5936 87.628 32.2334 74.6675 29.03 55.8793C25.8268 37.0913 35.1447 20.4778 49.2641 18.2996Z" stroke="black" stroke-width="2"/>
<ellipse cx="13.7448" cy="17.6741" rx="13.7448" ry="17.6741" transform="matrix(0.988309 -0.152466 0.168072 0.985775 40.9525 36.9236)" fill="black"/>
<path d="M25.8864 92.1233C50.7373 114.876 78.3842 101.579 84.2865 87.2478C81.6581 101.543 63.8501 109.653 49.0288 110C32.7203 110 12.3735 97.1463 6.7819 85.4746C-13.7946 42.5237 17.5509 12.2927 33.1864 8.0575C3.83096 21.2066 -0.822463 67.6699 25.8864 92.1233Z" fill="black"/>
<path d="M57.2609 48.3916L101.527 21.4702L110.38 16.1836" stroke="#A0A0A0" stroke-width="2" stroke-linecap="round"/>
<path d="M100.44 19.286L101.527 12.1944L121.874 3.0343L116.127 12.1944L127.62 13.2286L110.38 24.1616L101.527 21.47" stroke="#A0A0A0" stroke-width="2" stroke-linecap="round"/>
<path d="M58.9692 51.4941L114.382 32.6158L124.214 29.2411" stroke="#A0A0A0" stroke-width="2" stroke-linecap="round"/>
<path d="M113.807 30.2623L116.455 23.5528L138.385 18.7184L130.721 26.5064L141.721 29.8421L122.43 37.0372L114.381 32.6163" stroke="#A0A0A0" stroke-width="2" stroke-linecap="round"/>
<path d="M102.215 45.4257L105.762 39.8036L126.007 38.8143L117.835 44.6382L126.954 49.3166L108.616 52.83L102.299 47.628" stroke="#A0A0A0" stroke-width="2" stroke-linecap="round"/>
<path d="M59.9011 54.5965L102.299 47.6275L111.594 46.0997" stroke="#A0A0A0" stroke-width="2" stroke-linecap="round"/>
</svg>
