<svg width="105" height="110" viewBox="0 0 105 110" fill="none" xmlns="http://www.w3.org/2000/svg">
<path d="M6.68728 88.4574C7.73861 85.4889 7.29444 82.8559 6.68726 79.2585C5.92827 74.7617 4.6633 64.6651 11.0725 58.2169C16.1999 53.0583 22.0356 50.4112 24.3126 49.7324" stroke="#A0A0A0" stroke-width="2" stroke-linecap="round"/>
<path d="M19.6124 88.3335C19.9791 87.049 23.5837 81.4641 23.1254 77.6964C22.9605 76.6245 23.076 74.159 25.3518 72.8727" stroke="#A0A0A0" stroke-width="2" stroke-linecap="round"/>
<path d="M17.5596 63.1015C19.2912 60.2568 23.9913 56.5462 27.7018 55.9278C31.4124 55.3094 31.7405 57.8319 31.2621 58.9029C30.5445 60.5093 28.9825 62.2849 25.8586 65.6669C22.7639 69.0173 21.0743 75.221 20.8773 78.1802" stroke="#A0A0A0" stroke-width="2" stroke-linecap="round"/>
<path d="M78.8816 53.0903C76.4769 51.0265 70.4963 47.374 65.8114 49.2737C65.387 49.4434 64.5043 50.2406 64.3685 52.0726" stroke="#A0A0A0" stroke-width="2" stroke-linecap="round"/>
<path d="M91.1032 82.7745C90.8769 81.8699 90.4072 78.9749 90.6788 76.668C91.0183 73.7845 90.711 62.9002 85.9581 59.7622" stroke="#A0A0A0" stroke-width="2" stroke-linecap="round"/>
<path d="M90.2871 60.0096L80.512 59.3689" stroke="black" stroke-width="2" stroke-linecap="round"/>
<ellipse cx="90.2373" cy="57.0297" rx="2.59741" ry="3.5869" fill="black"/>
<path d="M86.6046 58.8769C85.5272 56.9385 86.3163 55.3611 87.1651 54.5045C87.4717 54.1952 87.9129 54.0837 88.3479 54.1039L89.2826 54.1473C90.3845 54.1985 91.2369 55.1322 91.1878 56.2342L91.1142 57.8856C91.0629 59.0371 90.0514 59.907 88.9052 59.7854L87.9301 59.682C87.3857 59.6243 86.8705 59.3554 86.6046 58.8769Z" fill="black"/>
<path d="M58.4701 54.1982C58.3981 54.8376 57.6922 55.1916 57.1367 54.8669C56.471 54.4778 56.5816 53.4837 57.3167 53.2505C57.9309 53.0556 58.5422 53.5578 58.4701 54.1982Z" fill="black"/>
<path d="M25.2498 56.4227L24.0653 23.7539C24.0652 18.9324 24.9622 10.7613 34.9801 10.8967C44.998 11.032 50.4356 10.9531 51.9021 10.8967" stroke="black" stroke-width="2" stroke-linecap="round"/>
<path d="M63.4091 10.8967H80.2466C84.9001 10.9813 88.8768 13.0114 88.8768 20.7934C88.8768 28.5754 88.6466 44.8437 88.3082 53.3306" stroke="black" stroke-width="2" stroke-linecap="round"/>
<path d="M74.2081 93.6523C67.27 94.1598 48.7152 95.5119 37.5184 95.9912C32.7802 95.9912 26.5021 95.3822 25.7575 86.8558L25.2499 66.4703" stroke="black" stroke-width="2" stroke-linecap="round"/>
<path d="M57.5839 4.22632C59.1491 4.22632 60.4187 5.49511 60.4188 7.0603C60.4188 8.62563 59.1492 9.89526 57.5839 9.89526C56.0187 9.89511 54.7499 8.62553 54.7499 7.0603C54.75 5.49521 56.0188 4.22648 57.5839 4.22632Z" stroke="black" stroke-width="2"/>
<path d="M52.338 9.15417C52.945 10.91 52.0851 12.1932 50.1461 12.6153C49.2187 12.8171 47.9204 12.8347 45.425 13.7127C42.3057 14.8101 41.7156 17.9335 41.6313 20.6349C41.5638 22.7959 42.8116 23.505 45.0035 23.5894C51.3825 23.5613 65.0455 23.7583 68.6931 23.7583C72.4869 23.7583 73.0385 22.3232 73.1613 21.3946C73.7683 16.8023 72.1497 14.9613 70.7164 14.3036C70.042 13.9941 68.0693 13.2231 65.5738 12.6153C63.0784 12.0075 62.6291 11.1802 62.8761 9.99832C63.4831 7.09438 63.129 4.73635 62.8761 3.92032C62.5951 2.79476 60.9539 0.644947 56.6375 1.05015C51.242 1.55665 51.5792 6.95933 52.338 9.15417Z" stroke="black" stroke-width="2" stroke-linecap="round"/>
<path d="M81.8766 52.7119L82.1979 21.4194C82.1979 20.7438 81.8153 19.5616 80.2554 19.5616C78.6506 19.5616 75.0471 19.6179 73.4142 19.5616" stroke="black" stroke-width="2" stroke-linecap="round"/>
<path d="M41.2352 19.5616H33.465C32.6204 19.4772 30.9988 19.9669 31.269 22.6016C31.5393 25.2362 32.8456 66.0896 33.465 86.187C33.4368 87.2003 33.8873 89.1931 35.9143 89.058C37.4563 88.9553 61.4533 87.6039 75.8158 86.973" stroke="black" stroke-width="2" stroke-linecap="round"/>
<path d="M84.2265 53.0833L84.6715 22.0004C84.6715 21.0697 84.2661 19.7159 81.9686 20.0543" stroke="black" stroke-width="2" stroke-linecap="round"/>
<path d="M31.9656 19.8004C31.1209 19.8004 29.1783 19.8004 29.2627 22.0002C29.3437 24.1144 30.1073 45.7638 30.3607 55.8042" stroke="black" stroke-width="2" stroke-linecap="round"/>
<path d="M30.3607 60.6671L31.1209 87.0656C31.2054 87.9963 31.5432 89.35 35.5975 89.0116" stroke="black" stroke-width="2" stroke-linecap="round"/>
<path d="M40.1445 34.1479H55.9764" stroke="black" stroke-width="2" stroke-linecap="round"/>
<path d="M40.2505 39.7645L74.4305 39.5953" stroke="black" stroke-width="2" stroke-linecap="round"/>
<path d="M40.3351 45.4327L67.1546 45.1789" stroke="black" stroke-width="2" stroke-linecap="round"/>
<path d="M40.5929 54.2372L53.7872 53.64" stroke="black" stroke-width="2" stroke-linecap="round"/>
<path d="M85.2161 53.7015C84.5977 54.8559 83.2371 56.4226 84.7213 59.3911" stroke="black" stroke-width="2" stroke-linecap="round"/>
<path d="M65.5498 67.4546C64.7252 68.4361 64.2635 71.2401 69.013 74.6044C71.3631 76.1299 76.2363 80.764 76.929 87.0967" stroke="#A0A0A0" stroke-width="2" stroke-linecap="round"/>
<path d="M64.313 57.536C63.8711 58.3647 63.6771 59.9594 65.0552 61.4872C65.7341 62.2398 66.7944 62.9762 68.3946 63.5966" stroke="#A0A0A0" stroke-width="2" stroke-linecap="round"/>
<path d="M65.0552 61.4868C64.171 62.7658 63.3649 65.3884 65.55 67.4545C66.1158 67.9896 67.9955 68.9821 69.0132 69.4095" stroke="#A0A0A0" stroke-width="2" stroke-linecap="round"/>
<path d="M82.2313 108.744C79.5926 102.601 75.8985 89.3005 82.2313 85.2436C90.1472 80.1725 100.413 91.6753 104 101.57" stroke="#A0A0A0" stroke-width="2" stroke-linecap="round"/>
<path d="M1.55432 103.918C2.17275 98.146 6.47704 86.3654 13.7993 87.8496C21.1215 89.3338 23.117 102.568 23.1994 109" stroke="#A0A0A0" stroke-width="2" stroke-linecap="round"/>
<path d="M90.4109 54.0725L61.3908 51.9829C61.1684 51.9669 60.9413 51.9873 60.7279 52.0518C56.9045 53.2081 58.2172 55.3444 59.6532 56.6546C59.9408 56.917 60.3142 57.0598 60.7019 57.095L66.9106 57.6594" stroke="black" stroke-width="2" stroke-linecap="round"/>
<path d="M73.8369 70.8939C69.1368 65.5754 66.4157 61.3701 67.0341 56.0515C67.3788 53.0872 69.0861 51.8647 70.6491 53.3449C72.7237 55.3094 74.3316 57.7832 76.5902 58.7728C77.033 58.9789 78.438 59.3911 80.5159 59.3911" stroke="#A0A0A0" stroke-width="2" stroke-linecap="round"/>
</svg>
