<svg width="141" height="132" viewBox="0 0 141 132" fill="none" xmlns="http://www.w3.org/2000/svg">
<path d="M20.9714 96.3198V87.0711V74.5726C20.9714 71.5372 21.401 68.8887 17.7472 68.6804C14.0933 68.4721 12.3534 72.6085 6.08965 71.1801C2.78386 70.4262 3.40153e-06 67.0734 0 63.1453C-5.87525e-06 56.3604 7.36382 52.2666 14.4413 56.7175C20.9714 60.8242 20.9714 53.1465 20.9714 50.6468V35.5059C20.9714 34.4013 21.8668 33.5059 22.9714 33.5059H45.6782C50.55 33.863 47.5921 39.398 46.2002 42.7905C43.4163 49.5754 47.1861 53.3845 49.854 54.3963C59.2495 56.7175 61.5114 46.7186 58.3796 42.7905C54.0974 37.4195 55.2477 34.0415 57.3356 34.0415H79.021C80.183 34.0415 81.1178 35.0272 81.1042 36.1891C81.0638 39.6476 81.1725 45.7236 81.1725 51.7181C81.1725 61.0027 89.5241 57.9673 89.5241 58.1459C89.5241 58.3244 102.039 54.8119 103.095 64.5737C103.791 71.0016 97.0058 75.1082 89.5241 72.7869C83.5388 70.9299 82.5645 73.1442 82.5645 75.1082V96.3198C82.5645 97.4244 81.669 98.3198 80.5645 98.3198H56.8934C56.1956 98.3198 55.5366 97.9601 55.2197 97.3385C52.6504 92.2996 55.4822 89.8078 57.1617 85.6427C59.2495 80.4648 56.9676 76.1525 53.5078 75.1082C48.984 73.7427 40.9804 76.1795 44.2863 85.6427C46.8355 92.94 46.7221 98.3198 42.5463 98.3198H22.9714C21.8668 98.3198 20.9714 97.4244 20.9714 96.3198Z" fill="black"/>
<path d="M80.7615 34.8996H100.798C103.237 34.8996 107.686 32.6765 106.199 23.7535C104.631 14.3444 112.113 14.4227 115.259 15.5637C116.885 16.1451 119.65 18.597 117.698 23.7535C115.259 30.1991 116.827 35.2536 121.88 35.2536H138C139.105 35.2536 140 36.1491 140 37.2536V95.429C140 96.5411 139.1 97.44 137.988 97.4308C133.218 97.3913 121.442 97.3103 119.092 97.4485C116.13 97.6227 116.644 100.855 118.395 104.94C121.009 111.039 118.308 118.479 109.51 116.962C104.457 116.091 102.366 110.69 104.457 104.94C106.548 99.1908 104.108 97.4485 101.843 97.4485C97.2416 97.4485 86.4767 97.3904 81.8886 97.4485" stroke="#A0A0A0" stroke-width="2" stroke-linecap="round"/>
<path d="M83.4567 117.137C84.5601 119.053 86.8367 123.2 87.1155 124.454" stroke="#A0A0A0" stroke-width="2" stroke-linecap="round"/>
<path d="M79.1009 118.182C78.5201 119.75 78.2297 124.42 81.7144 130.553" stroke="#A0A0A0" stroke-width="2" stroke-linecap="round"/>
<path d="M72.4802 117.137C70.2152 119.227 65.5806 124.106 65.1625 126.894" stroke="#A0A0A0" stroke-width="2" stroke-linecap="round"/>
<path d="M79.7978 14.8633C82.0628 12.7725 86.6973 7.89404 87.1155 5.10634" stroke="#A0A0A0" stroke-width="2" stroke-linecap="round"/>
<path d="M73.1771 13.8177C73.7578 12.2497 74.0482 7.58028 70.5636 1.44735" stroke="#A0A0A0" stroke-width="2" stroke-linecap="round"/>
<path d="M68.8213 14.8633C67.7178 12.9467 65.4412 8.80004 65.1624 7.54558" stroke="#A0A0A0" stroke-width="2" stroke-linecap="round"/>
</svg>
