<svg width="329" height="237" viewBox="0 0 329 237" fill="none" xmlns="http://www.w3.org/2000/svg">
<path d="M251.394 219.994C241.467 212.034 254.918 211.1 262.884 211.627V216.828L281.957 221.577C275.906 224.366 261.322 227.953 251.394 219.994Z" fill="#A0A0A0"/>
<path d="M303.559 215.245C297.124 215.969 295.209 213.135 295.056 211.627H308.844C309.763 212.532 309.993 214.522 303.559 215.245Z" fill="#A0A0A0"/>
<path d="M289.081 193.312C281.958 193.312 278.051 192.86 272.306 192.407" stroke="#A0A0A0" stroke-width="3" stroke-linecap="round"/>
<path d="M294.596 196.025V217.733" stroke="#A0A0A0" stroke-width="3" stroke-linecap="round"/>
<path d="M278.051 197.155L262.885 196.025" stroke="#A0A0A0" stroke-width="3" stroke-linecap="round"/>
<path d="M285.175 199.417V221.351" stroke="#A0A0A0" stroke-width="3" stroke-linecap="round"/>
<path d="M284.945 221.803L294.596 217.959" stroke="#A0A0A0" stroke-width="3" stroke-linecap="round"/>
<path d="M272.076 192.407L262.885 196.025" stroke="#A0A0A0" stroke-width="3" stroke-linecap="round"/>
<path d="M262.655 196.251V217.054" stroke="#A0A0A0" stroke-width="3" stroke-linecap="round"/>
<path d="M262.425 216.828L284.945 221.803" stroke="#A0A0A0" stroke-width="3" stroke-linecap="round"/>
<path d="M289.081 193.764V187.433" stroke="#A0A0A0" stroke-width="3" stroke-linecap="round"/>
<path d="M309.074 211.401V189.468" stroke="#A0A0A0" stroke-width="3" stroke-linecap="round"/>
<path d="M319.874 182.232V206.653" stroke="#A0A0A0" stroke-width="3" stroke-linecap="round"/>
<path d="M309.074 211.854L319.874 206.653" stroke="#A0A0A0" stroke-width="3" stroke-linecap="round"/>
<path d="M319.874 182.006L295.516 181.101" stroke="#A0A0A0" stroke-width="3" stroke-linecap="round"/>
<path d="M289.081 187.433L295.516 181.101" stroke="#A0A0A0" stroke-width="3" stroke-linecap="round"/>
<path d="M309.074 189.242L319.644 182.458" stroke="#A0A0A0" stroke-width="3" stroke-linecap="round"/>
<path d="M309.073 211.401H295.516" stroke="#A0A0A0" stroke-width="3" stroke-linecap="round"/>
<path d="M289.311 187.433L302.41 187.885" stroke="#A0A0A0" stroke-width="3" stroke-linecap="round"/>
<path d="M105.689 229.512C105.918 223.181 131.656 225.216 133.264 225.442V229.512L141.077 234.939C129.204 235.24 105.505 234.577 105.689 229.512Z" fill="#A0A0A0"/>
<path d="M169.572 228.833V205.769" stroke="#A0A0A0" stroke-width="3" stroke-linecap="round"/>
<path d="M149.58 234.712V209.387" stroke="#A0A0A0" stroke-width="3" stroke-linecap="round"/>
<path d="M133.034 228.833V203.508" stroke="#A0A0A0" stroke-width="3" stroke-linecap="round"/>
<path d="M133.034 203.508L151.188 198.986" stroke="#A0A0A0" stroke-width="3" stroke-linecap="round"/>
<path d="M169.572 205.543L149.58 209.161" stroke="#A0A0A0" stroke-width="3" stroke-linecap="round"/>
<path d="M149.58 234.939L169.572 229.06" stroke="#A0A0A0" stroke-width="3" stroke-linecap="round"/>
<path d="M169.572 205.543L151.188 198.986" stroke="#A0A0A0" stroke-width="3" stroke-linecap="round"/>
<path d="M133.034 203.734L149.809 209.161" stroke="#A0A0A0" stroke-width="3" stroke-linecap="round"/>
<path d="M191.975 228.381C187.747 221.145 201.243 220.09 208.52 220.467V225.668L232.189 228.381C220.546 231.396 196.203 235.617 191.975 228.381Z" fill="#A0A0A0"/>
<path d="M243.908 218.658L234.946 227.703" stroke="#A0A0A0" stroke-width="3" stroke-linecap="round"/>
<path d="M232.878 200.116L209.668 198.533" stroke="#A0A0A0" stroke-width="3" stroke-linecap="round"/>
<path d="M219.09 192.654L243.908 193.784" stroke="#A0A0A0" stroke-width="3" stroke-linecap="round"/>
<path d="M209.209 198.533L208.06 224.763" stroke="#A0A0A0" stroke-width="3" stroke-linecap="round"/>
<path d="M243.908 194.237V218.206" stroke="#A0A0A0" stroke-width="3" stroke-linecap="round"/>
<path d="M234.946 208.483V227.703" stroke="#A0A0A0" stroke-width="3" stroke-linecap="round"/>
<path d="M209.209 198.533L219.09 192.654" stroke="#A0A0A0" stroke-width="3" stroke-linecap="round"/>
<path d="M234.946 227.703L207.83 224.99" stroke="#A0A0A0" stroke-width="3" stroke-linecap="round"/>
<path d="M187.183 58.9105C188.179 58.6089 190.813 58.3228 193.387 59.5886" stroke="black" stroke-width="3" stroke-linecap="round"/>
<path d="M177.991 70.6688C179.768 70.6688 181.208 69.1502 181.208 67.277C181.208 65.4038 179.768 63.8852 177.991 63.8852C176.214 63.8852 174.774 65.4038 174.774 67.277C174.774 69.1502 176.214 70.6688 177.991 70.6688Z" fill="black"/>
<path d="M204.187 75.1913C205.964 75.1913 207.405 73.6727 207.405 71.7995C207.405 69.9262 205.964 68.4077 204.187 68.4077C202.411 68.4077 200.97 69.9262 200.97 71.7995C200.97 73.6727 202.411 75.1913 204.187 75.1913Z" fill="black"/>
<path d="M170.178 61.8501C170.408 60.4179 171.832 57.6895 175.693 58.2322" stroke="black" stroke-width="3" stroke-linecap="round"/>
<path d="M199.592 61.3971C201.43 59.8148 206.026 57.5996 209.703 61.3971" stroke="black" stroke-width="3" stroke-linecap="round"/>
<path d="M189.71 65.2419C191.855 68.7092 194.858 76.1409 189.71 78.1308L187.183 79.0352" stroke="black" stroke-width="3" stroke-linecap="round"/>
<path d="M180.978 86.0449C181.514 87.4766 183.552 89.8424 187.412 87.8532" stroke="black" stroke-width="3" stroke-linecap="round"/>
<path d="M106.984 52.8053C99.4466 77.2263 120.388 94.9392 131.802 100.743C142.097 94.5923 156.773 91.4718 163.054 90.5674C155.241 84.236 152.866 72.6284 152.254 67.277C148.117 68.6337 137.087 63.433 142.143 52.8053C146.187 44.3032 150.568 48.6596 152.254 51.9009L163.514 56.8755C163.514 46.5644 170.714 43.0822 174.314 42.6299C176.52 41.1828 178.91 36.4492 179.829 34.2635C180.932 42.7656 192.238 48.9613 197.753 50.9964C204.923 45.3886 210.698 48.6596 212.69 50.9964L217.745 50.318C227.627 47.0017 245.367 35.6654 237.278 16.8523C229.189 -1.96092 212.46 1.4761 205.107 5.54626C179.921 -10.9153 154.628 13.1588 145.13 27.2538C135.555 25.5954 114.521 28.3844 106.984 52.8053Z" fill="black"/>
<path d="M163.284 57.1017L152.254 51.4487" stroke="black" stroke-width="3" stroke-linecap="round"/>
<path d="M186.953 56.6495C186.953 64.4483 181.536 70.4428 175.233 70.4428C168.93 70.4428 163.514 64.4483 163.514 56.6495C163.514 48.8501 168.93 42.8561 175.233 42.8561C181.536 42.8561 186.953 48.8501 186.953 56.6495Z" stroke="black" stroke-width="3"/>
<path d="M217.286 61.6241C217.286 69.4229 211.869 75.4174 205.566 75.4174C199.263 75.4174 193.847 69.4229 193.847 61.6241C193.847 53.8247 199.263 47.8307 205.566 47.8307C211.869 47.8307 217.286 53.8247 217.286 61.6241Z" stroke="black" stroke-width="3"/>
<path d="M217.746 105.213C235.394 91.2843 225.329 72.5014 217.975 64.7378C213.931 83.551 204.571 91.6461 200.511 93.455L206.945 96.8468L217.746 105.213Z" fill="black"/>
<path d="M153.633 56.6495C153.25 52.5038 148.347 42.6301 143.062 51.901C140.764 56.1217 139.109 65.1516 150.875 67.5033" stroke="black" stroke-width="3" stroke-linecap="round"/>
<path d="M149.726 55.0666C148.654 55.9711 147.06 58.3227 149.266 60.4935" stroke="black" stroke-width="3" stroke-linecap="round"/>
<path d="M216.367 66.8248C215.08 74.0606 212.23 80.615 209.243 84.6883C207.375 87.2353 204.349 90.4503 200.49 93.2528" stroke="black" stroke-width="3" stroke-linecap="round"/>
<path d="M152.024 67.5031C151.871 76.6985 155.517 90.3412 172.246 97.5771C174.82 98.69 177.35 99.3286 179.808 99.5859" stroke="black" stroke-width="3" stroke-linecap="round"/>
<path d="M198.902 108.657C195.226 107.753 191.702 110.692 190.4 112.275C189.711 113.707 189.389 116.526 193.617 116.345C198.902 116.119 200.511 108.657 206.715 120.641C211.679 130.229 212.001 149.057 211.541 157.273" stroke="black" stroke-width="3" stroke-linecap="round" stroke-linejoin="round"/>
<path d="M186.873 106.17C185.674 108.732 184.701 113.541 190.4 112.275" stroke="black" stroke-width="3" stroke-linecap="round" stroke-linejoin="round"/>
<path d="M189.091 97.3511C185.874 98.7078 181.208 103.592 183.046 106.848C183.276 107.225 183.965 107.934 184.885 107.753C185.287 107.673 185.944 106.984 186.873 106.17C188.598 104.66 191.263 102.722 194.996 103.456" stroke="black" stroke-width="3" stroke-linecap="round" stroke-linejoin="round"/>
<path d="M253.397 174.996C255.694 163.916 253.456 137.917 225.329 112.953L206.715 96.8986L194.996 90.7934L192.698 90.3411L183.966 92.3762L183.046 93.2807L180.059 98.7076C179.599 99.8382 181.576 101.15 184.885 100.064" stroke="black" stroke-width="3" stroke-linecap="round" stroke-linejoin="round"/>
<path d="M162.365 91.4719C147.428 93.4315 108.653 101.857 85.1537 136.018C63.0069 168.213 88.0546 181.78 106.668 182.458" stroke="black" stroke-width="3" stroke-linecap="round" stroke-linejoin="round"/>
<path d="M2 186.98L105.638 182.006" stroke="#A0A0A0" stroke-width="3" stroke-linecap="round" stroke-linejoin="round"/>
<path d="M133.903 180.875L327 172.597" stroke="#A0A0A0" stroke-width="3" stroke-linecap="round"/>
<path d="M116.689 182.805C116.973 183.672 116.764 184.295 115.657 184.389C112.382 184.665 108.492 179.669 106.957 177.137" stroke="black" stroke-width="3" stroke-linecap="round"/>
<path d="M116.681 172.992C118.316 175.562 121.166 179.523 123.666 181.769C123.438 183.496 121.723 186.121 116.689 182.805C115.923 180.466 111.563 176.352 111.563 176.101" stroke="black" stroke-width="3" stroke-linecap="round"/>
<path d="M121.116 170.575C124.244 173.971 129.919 181.246 127.599 183.18C127.188 183.523 126.664 183.556 126.064 183.355C125.35 183.116 124.529 182.545 123.666 181.769C121.166 179.523 118.316 175.562 116.681 172.992" stroke="black" stroke-width="3" stroke-linecap="round"/>
<path d="M95.4078 179.425C100.639 172.979 117.363 159.005 126.917 167.467C130.727 171.208 135.475 177.97 132.746 180.733C131.381 181.769 128.426 180.388 126.521 177.625" stroke="black" stroke-width="3" stroke-linecap="round"/>
<path d="M114.046 142.661C110.752 145.224 105.589 151.887 111.288 158.037" stroke="black" stroke-width="3" stroke-linecap="round"/>
</svg>
