<svg width="263" height="257" viewBox="0 0 263 257" fill="none" xmlns="http://www.w3.org/2000/svg">
<path d="M0.397611 250.184C-2.35554 247.742 9.87718 247.923 15.9148 247.81C16.7842 249.031 17.4242 249.053 18.994 249.336C19.7185 251.201 3.15076 252.625 0.397611 250.184Z" fill="#A0A0A0"/>
<path d="M94.5317 65.6467C93.9718 67.6729 93.5546 74.2568 95.7531 79.6593" stroke="black" stroke-width="2.5" stroke-linecap="round"/>
<path d="M115.873 30.949C120.999 34.9844 128.954 43.6949 121.222 47.2385C120.768 47.446 120.518 47.9485 120.647 48.4276C122.169 54.0613 121.928 65.6945 110.126 73.5725C109.95 73.6895 109.815 73.8637 109.751 74.064L107.43 81.3275" stroke="black" stroke-width="2.5" stroke-linecap="round"/>
<path d="M110.799 60.6423C110.617 61.4431 111.09 63.0979 114.436 63.3114" stroke="black" stroke-width="2.5" stroke-linecap="round"/>
<path d="M92.75 80.9836C97.9677 79.1138 107.904 76.8258 107.904 83.2936V84.4161C107.904 85.1739 108.769 85.6031 109.368 85.139" stroke="#A0A0A0" stroke-width="2.5" stroke-linecap="round"/>
<path d="M109.368 85.1389C117.745 78.6491 134.788 65.6467 140.793 55.8046" stroke="black" stroke-width="2.5" stroke-linecap="round"/>
<path d="M119.774 39.6234C119.774 41.3779 119.244 42.9209 118.442 43.9986C117.64 45.0759 116.624 45.6288 115.604 45.6288C114.584 45.6288 113.568 45.0759 112.766 43.9986C111.964 42.9209 111.434 41.3779 111.434 39.6234C111.434 37.8689 111.964 36.326 112.766 35.2483C113.568 34.171 114.584 33.618 115.604 33.618C116.624 33.618 117.64 34.171 118.442 35.2483C119.244 36.326 119.774 37.8689 119.774 39.6234Z" stroke="black" stroke-width="2.5" stroke-linecap="round"/>
<path d="M100.423 44.9615L110.765 41.2915" stroke="black" stroke-width="2.5" stroke-linecap="round"/>
<path d="M108.431 37.9552C108.694 36.8433 109.664 34.2851 111.434 32.9507" stroke="black" stroke-width="2.5" stroke-linecap="round"/>
<path d="M116.104 40.6243C116.841 40.6243 117.439 40.1762 117.439 39.6234C117.439 39.0706 116.841 38.6225 116.104 38.6225C115.367 38.6225 114.77 39.0706 114.77 39.6234C114.77 40.1762 115.367 40.6243 116.104 40.6243Z" fill="black"/>
<path d="M121.186 107.282C127.888 103.413 143.862 88.5673 154.138 60.1418" stroke="black" stroke-width="2.5" stroke-linecap="round"/>
<path d="M111.566 150.056C110.951 143.497 110.46 129.024 113.409 123.601C116.359 118.178 119.193 110.42 121.186 107.282" stroke="#A0A0A0" stroke-width="2.5" stroke-linecap="round"/>
<path d="M92.7498 80.6604L54.3821 125.701" stroke="#A0A0A0" stroke-width="2.5" stroke-linecap="round"/>
<path d="M54.3821 125.839C57.2267 125.455 64.6212 125.641 71.4473 129.463C79.9802 134.24 89.0144 142.642 111.433 150.056" stroke="#A0A0A0" stroke-width="2.5" stroke-linecap="round"/>
<path d="M111.433 150.056L103.76 155.394" stroke="#A0A0A0" stroke-width="2.5" stroke-linecap="round"/>
<path d="M54.3859 125.701C53.8661 127.312 53.3502 131.069 57.7178 135.71" stroke="#A0A0A0" stroke-width="2.5" stroke-linecap="round"/>
<path d="M82.4066 93.0049C76.1978 98.1767 60.454 109.087 47.1493 111.357C44.0451 112.635 38.7011 116.228 42.1603 120.365C45.6195 124.503 47.9257 129.541 48.6465 131.543C49.2008 133.378 50.5808 135.937 53.9069 130.065" stroke="#A0A0A0" stroke-width="2.5" stroke-linecap="round"/>
<path d="M43.3719 122.031C40.7943 123.551 34.7836 126.455 31.3614 125.914C27.9392 125.374 25.6578 126.815 24.9448 127.603C24.5609 128.222 24.3196 129.494 26.4256 129.63C28.5315 129.765 31.0324 129.686 32.0195 129.63" stroke="#A0A0A0" stroke-width="2.5" stroke-linecap="round"/>
<path d="M34.6976 127.369C33.5432 128.662 29.618 131.602 23.153 133.013C21.8887 133.249 20.1845 134.601 22.4934 136.189C24.4724 137.423 29.9478 136.294 32.7186 134.601" stroke="#A0A0A0" stroke-width="2.5" stroke-linecap="round"/>
<path d="M32.6889 134.375C30.5685 135.443 26.7518 138.284 28.4481 141.115C28.9918 141.677 31.2862 141.721 36.1142 137.408L39.7025 134.375" stroke="#A0A0A0" stroke-width="2.5" stroke-linecap="round"/>
<path d="M39.8819 134.439L36.2181 137.5C35.1634 140.277 33.5536 147.021 37.8835 143.281C41.0476 140.05 40.3815 137.296 41.7137 136.48C43.046 135.664 46.0436 132.513 47.3759 131.039" stroke="#A0A0A0" stroke-width="2.5" stroke-linecap="round"/>
<path d="M40.0388 129.037C39.595 130.41 39.2399 133.601 41.3703 135.376" stroke="#A0A0A0" stroke-width="2.5" stroke-linecap="round"/>
<path d="M80.4055 241.471C82.5042 240.915 86.7346 238.102 86.867 231.296C86.9998 224.489 89.7942 212.779 91.1746 207.774L104.761 147.72" stroke="#A0A0A0" stroke-width="2.5" stroke-linecap="round"/>
<path d="M109.765 50.967C110.133 50.967 110.432 50.743 110.432 50.4666C110.432 50.1902 110.133 49.9661 109.765 49.9661C109.396 49.9661 109.098 50.1902 109.098 50.4666C109.098 50.743 109.396 50.967 109.765 50.967Z" fill="black"/>
<path d="M111.934 52.9687C112.21 52.9687 112.434 52.8193 112.434 52.635C112.434 52.4508 112.21 52.3014 111.934 52.3014C111.658 52.3014 111.434 52.4508 111.434 52.635C111.434 52.8193 111.658 52.9687 111.934 52.9687Z" fill="black"/>
<path d="M107.096 54.3033C107.281 54.3033 107.43 54.0046 107.43 53.6361C107.43 53.2676 107.281 52.9688 107.096 52.9688C106.912 52.9688 106.763 53.2676 106.763 53.6361C106.763 54.0046 106.912 54.3033 107.096 54.3033Z" fill="black"/>
<path d="M57.7999 46.1859C65.908 31.1154 78.0147 29.2206 83.0549 30.1567C93.5223 14.1275 107.978 8.83964 116.784 13.6319C123.829 17.4656 118.058 27.1272 114.291 31.4789L110.636 26.191C108.111 31.0824 100.889 29.2756 97.3438 28.1739C100.39 34.5635 105.253 51.0777 95.0176 66.0162C84.783 80.9547 71.9227 81.2188 65.4425 76.9226C59.4612 72.6813 49.6917 61.2569 57.7999 46.1859Z" fill="black"/>
<path d="M53.7146 243.473C54.8205 245.204 58.504 248.471 64.3908 247.692" stroke="#A0A0A0" stroke-width="2.5" stroke-linecap="round"/>
<path d="M62.9865 126.702C60.899 132.673 51.1187 144.947 42.3826 160.374C36.5585 170.05 22.6685 191.657 13.7016 200.681C12.4929 202.394 11.361 206.287 16.5038 208.144C20.4598 209.803 22.24 213.652 22.7674 217.765C23.4268 222.907 31.8333 226.722 37.4376 222.907C41.9045 219.866 54.7489 197.963 64.4525 185.586C66.9231 182.435 69.1901 179.901 71.0634 178.454" stroke="#A0A0A0" stroke-width="2.5" stroke-linecap="round"/>
<path d="M64.6925 185.754L53.7146 243.473C59.2945 241.984 74.6223 239.173 84.0752 239.173" stroke="#A0A0A0" stroke-width="2.5" stroke-linecap="round"/>
<path d="M10.053 238.703C0.959283 221.075 9.3891 209.345 13.9482 206.44C21.0158 208.663 21.2068 216.073 22.3529 219.593L19.7077 226.836C17.9377 229.952 18.9702 236.045 19.7077 238.703C22.765 251.015 18.1506 252.198 15.8861 248.901L10.053 238.703Z" fill="black"/>
<path d="M58.5395 254.867C55.4763 252.441 61.5346 251.501 67.6822 251.146C69.8238 253.061 84.0489 253.715 84.743 254.158C78.1986 256.286 61.2239 256.993 58.5395 254.867Z" fill="#A0A0A0"/>
<path d="M89.3078 253.828C66.0828 257.013 61.2627 247.827 61.7558 242.457C65.75 240.788 76.7334 240.182 81.9112 239.803C80.4317 243.291 82.2808 242.835 83.5753 243.783C85.2398 244.92 89.8624 246.31 92.4513 246.437C104.101 247.005 94.9785 253.007 89.3078 253.828Z" fill="black"/>
<path d="M144.017 26.4369C145.081 25.8253 147.275 25.6028 147.542 29.6064" stroke="black" stroke-width="2.5" stroke-linecap="round"/>
<path d="M141.87 37.1133C141.981 35.5566 141.87 32.0088 140.535 30.2739C138.867 28.1053 138.533 23.9349 141.87 24.2685C142.929 24.3744 143.603 25.2543 144.016 26.4371C144.645 28.2351 144.673 30.7328 144.539 32.2757" stroke="black" stroke-width="2.5" stroke-linecap="round"/>
<path d="M139.773 41.4504C139.638 39.9491 139.068 36.4793 137.867 34.6109C136.365 32.2756 136.198 26.2702 139.368 26.9375" stroke="black" stroke-width="2.5" stroke-linecap="round"/>
<path d="M141.87 52.794C141.036 52.794 139.268 51.9933 138.868 48.7904C138.467 45.5876 137.033 43.5638 136.365 42.9519C135.976 42.0067 135.565 40.0493 137.033 39.7824C137.897 39.6252 138.919 40.463 139.773 41.4505L141.203 43.4523" stroke="black" stroke-width="2.5" stroke-linecap="round"/>
<path d="M149.544 37.9474C149.933 37.2247 150.311 35.3784 148.71 33.777C146.708 31.7752 147.208 29.9402 148.376 29.4398C149.544 28.9393 151.212 29.273 152.88 34.2775C154.548 38.6146 157.017 49.6245 154.215 58.9662" stroke="black" stroke-width="2.5" stroke-linecap="round"/>
<path d="M157.164 11.8451L159.782 7.08643" stroke="black" stroke-width="2.5" stroke-linecap="round"/>
<path d="M134.53 14.0927L139.201 17.0954" stroke="black" stroke-width="2.5" stroke-linecap="round"/>
<path d="M143.005 2L147.574 12.5064" stroke="black" stroke-width="2.5" stroke-linecap="round"/>
<path d="M159.18 26.2771C159.18 22.7744 159.994 16.9275 164.231 22.2228C166.838 26.0288 167.816 33.6078 165.861 37.4468" stroke="black" stroke-width="2.5" stroke-linecap="round"/>
<path d="M150.543 29.5039C150 27.5734 149.728 23.9769 152.987 25.036L156.572 32.3171" stroke="black" stroke-width="2.5" stroke-linecap="round"/>
<path d="M156.572 32.317L152.987 25.0359C152.715 22.8847 154.127 19.4097 157.55 22.2228L159.179 26.2771L160.808 30.3313" stroke="black" stroke-width="2.5" stroke-linecap="round"/>
<path d="M160.887 42.6182C159.997 44.5646 159.052 48.9906 162.388 51.1258" stroke="black" stroke-width="2.5" stroke-linecap="round"/>
<path d="M165.058 39.7822C165.836 37.5583 168.194 33.1431 171.397 33.2765C174.6 33.41 172.064 37.6136 171.397 39.115L166.726 48.2899C165.725 50.7921 164.224 55.2962 167.727 60.4675C171.23 65.1383 183.31 77.1491 196.322 79.1509" stroke="black" stroke-width="2.5" stroke-linecap="round"/>
<path d="M193.917 148.88C194.918 152.439 198.588 160.691 205.26 165.228M183.574 143.042L196.753 146.878L183.574 143.042ZM196.085 153.551C197.531 148.825 199.388 137.103 195.251 128.028C190.08 116.685 186.911 102.172 189.413 92.4963C191.415 84.756 198.699 83.5993 202.091 83.9887C207.429 84.6012 216.637 90.995 216.103 108.344C215.436 130.03 210.432 148.547 203.259 162.893L196.085 153.551Z" stroke="#A0A0A0" stroke-width="2.5" stroke-linecap="round"/>
<path d="M190.748 161.391C190.748 152.884 190.692 146.878 189.747 144.543C202.559 149.347 218.106 148.102 224.278 146.878C224.445 147.268 225.813 150.982 229.95 162.726C235.121 177.406 231.451 226.45 229.95 231.955C228.448 237.46 224.445 237.626 218.606 236.959C213.935 236.425 207.763 223.614 205.261 217.275C193.584 195.422 190.748 171.374 190.748 161.391Z" fill="black"/>
<path d="M236.044 117.03C237.699 121.089 241.442 131.409 243.177 140.217C238.395 143.609 224.945 150.048 208.93 148.046L183.574 143.041C182.573 134.645 182.456 113.26 189.128 94.1759C189.128 92.4524 190.881 87.6251 194.751 85.4898" stroke="#A0A0A0" stroke-width="2.5" stroke-linecap="round"/>
<path d="M234.62 131.531C234.549 130.46 236.525 122.667 236.044 117.03C235.776 113.886 235.433 109.964 235.003 105.186C233.802 91.8405 229.053 81.6093 226.829 78.1615C224.605 74.7141 219.342 72.6449 215.172 74.1463" stroke="#A0A0A0" stroke-width="2.5" stroke-linecap="round"/>
<path d="M231.417 220.93C232.855 189.641 226.478 160.079 222.942 148.546C231.859 147.343 238.882 143.489 241.459 142.207C244.048 151.968 247.836 177.028 249.394 188.505C253.277 201.074 252.45 219.147 251.551 226.612C252.126 231.158 248.435 232.964 246.518 233.298C236.307 236.641 232.196 226.445 231.417 220.93Z" fill="black"/>
<path d="M150.211 28.9392C153.047 33.4989 157.251 44.5531 154.048 60.3006C154.326 63.6926 159.276 74.909 163.056 79.9849C168.894 87.8253 181.072 96.6665 188.579 99.1688" stroke="black" stroke-width="2.5" stroke-linecap="round"/>
<path d="M201.969 76.5533C199.762 75.1951 183.161 76.5043 179.933 55.6219C174.407 55.6866 171.403 51.1602 175.619 49.2231C180.113 46.9054 179.776 42.6502 178.962 40.143C177.667 36.855 177.589 33.4029 177.868 32.6808" stroke="black" stroke-width="2.5" stroke-linecap="round"/>
<path d="M184.517 48.1159C183.728 48.1251 183.077 47.1727 183.063 45.9885C183.049 44.8044 183.678 43.837 184.467 43.8277C185.257 43.8185 185.908 44.7709 185.922 45.9551C185.935 47.1392 185.307 48.1066 184.517 48.1159Z" fill="black"/>
<path d="M187.886 41.1882C186.964 40.203 184.58 38.7613 182.42 40.8789" stroke="black" stroke-width="2.5" stroke-linecap="round"/>
<path d="M194.148 60.3777C192.454 62.985 190.594 63.7253 186.98 62.0428" stroke="black" stroke-width="2.5" stroke-linecap="round"/>
<path d="M208.02 42.1023C208.412 42.9644 208.741 44.9215 206.916 45.853" stroke="black" stroke-width="2.5" stroke-linecap="round"/>
<path d="M227.468 33.2495C229.618 45.0118 222.891 53.8661 218.014 60.6729C212.806 57.859 204.27 51.1677 207.544 50.4454C210.985 49.6863 214.614 40.3002 211.273 37.429C207.352 34.0602 203.818 39.1572 203.144 43.022L199.986 37.5611C200.879 33.7415 201.23 27.0413 195.487 30.7975C189.744 34.5534 181.32 33.5696 177.826 32.6082C170.936 27.6769 160.232 16.1744 172.533 9.61489C182.764 4.1592 196.077 11.0567 204.203 17.2544C209.706 15.8018 224.537 17.212 227.468 33.2495Z" fill="black"/>
<path d="M217.632 59.885C215.145 62.879 213.91 65.3653 214.064 70.5155" stroke="black" stroke-width="2.5" stroke-linecap="round"/>
<path d="M233.075 256.891C212.39 257.725 202.548 253.575 202.548 250.719C202.548 249.551 201.88 248.384 206.551 246.715C204.549 249.44 205.283 254.623 224.234 253.555C227.292 253.722 234.176 252.921 237.245 248.384H238.747C253.76 244.547 262.601 247.696 262.601 250.552C262.601 253.408 250.257 256.199 233.075 256.891Z" fill="#A0A0A0"/>
<path d="M236.952 248.311C248.125 249.378 249.534 240.414 248.842 235.799" stroke="#A0A0A0" stroke-width="2.5" stroke-linecap="round"/>
<path d="M222.152 240.137C222.152 240.86 221.985 242.439 221.318 242.972C220.484 243.64 205.471 241.972 205.804 249.478C205.637 250.535 207.306 252.147 211.309 252.648C216.94 253.352 233.082 255.407 236.953 248.311C237.178 247.898 237.362 247.453 237.499 246.976L239.001 240.637" stroke="#A0A0A0" stroke-width="2.5" stroke-linecap="round"/>
</svg>
