<svg width="165" height="141" viewBox="0 0 165 141" fill="none" xmlns="http://www.w3.org/2000/svg">
<path d="M22.3928 93.789L18.3275 87.0075C17.1377 85.0226 17.8995 82.4447 19.977 81.4254C21.9877 80.4389 24.4156 81.318 25.3286 83.3631L28.5516 90.5831C29.2937 92.2454 28.6283 94.1987 27.0258 95.0624C25.3893 95.9443 23.3486 95.3834 22.3928 93.789Z" fill="#A0A0A0"/>
<path d="M13.0116 76.9558L20.2567 73.552" stroke="black" stroke-width="2" stroke-linecap="round"/>
<path d="M14.3423 66.7442L5.23443 70.1275C2.44169 71.1649 1.16996 74.3964 2.55851 77.0322C6.99493 85.4537 13.8949 97.7393 18.6302 103.446C22.0685 107.59 26.1709 115.285 28.241 119.133C29.571 121.605 50.8633 147.252 48.2018 137.632C46.1867 130.349 22.8215 79.0983 9.54433 50.3768C8.36325 47.8219 9.51368 44.8145 12.107 43.7202C31.3664 35.5932 65.8293 21.9677 80.2871 19.6829C93.8854 17.5338 113.618 8.52224 125.182 2.54918C127.78 1.20749 130.993 2.27532 132.181 4.94649C138.898 20.0441 149.865 45.7528 151.555 60.9725C153.253 76.272 167.543 81.7628 163.173 94.5301C162.864 95.4346 162.23 96.1829 161.431 96.7083C136.283 113.25 98.4367 123.544 50.5676 140" stroke="black" stroke-width="2" stroke-linecap="round"/>
<path d="M27.3536 98.2664L44.0616 127.421" stroke="black" stroke-width="2" stroke-linecap="round"/>
<path d="M130.855 111.734C129.623 107.59 125.236 98.7108 122.575 92.3472C121.274 89.2342 134.823 86.0101 144.023 82.7143C147.706 81.3948 153.898 83.1882 155.521 86.7476C157.54 91.1745 159.574 95.5104 160.279 96.639" stroke="black" stroke-width="2" stroke-linecap="round"/>
<path d="M138.247 80.6553L124.201 85.835" stroke="black" stroke-width="2" stroke-linecap="round"/>
<path d="M122.427 82.1354L139.283 75.4758" stroke="black" stroke-width="2" stroke-linecap="round"/>
<path d="M143.866 73.6998L146.823 72.3679" stroke="black" stroke-width="2" stroke-linecap="round"/>
<path d="M120.209 78.1392L146.38 67.9277" stroke="black" stroke-width="2" stroke-linecap="round"/>
<path d="M118.435 74.2917L145.049 64.2283" stroke="black" stroke-width="2" stroke-linecap="round"/>
<path d="M116.808 70.7398L143.571 60.3804" stroke="black" stroke-width="2" stroke-linecap="round"/>
<path d="M82.0613 82.5794L110.007 73.1079" stroke="black" stroke-width="2" stroke-linecap="round"/>
<path d="M84.723 86.5751L111.338 77.3997" stroke="black" stroke-width="2" stroke-linecap="round"/>
<path d="M85.9056 91.3107L112.668 81.3953" stroke="black" stroke-width="2" stroke-linecap="round"/>
<path d="M86.3494 96.0467L114.147 85.6873" stroke="black" stroke-width="2" stroke-linecap="round"/>
<path d="M87.9757 100.93L103.649 93.6787" stroke="black" stroke-width="2" stroke-linecap="round"/>
<path d="M91.6722 103.002L113.851 95.4543" stroke="black" stroke-width="2" stroke-linecap="round"/>
<path d="M91.5243 107.738L115.625 99.0063" stroke="black" stroke-width="2" stroke-linecap="round"/>
<path d="M93.4465 111.585L118.878 102.114" stroke="black" stroke-width="2" stroke-linecap="round"/>
<path d="M95.2208 115.582L120.357 106.85" stroke="black" stroke-width="2" stroke-linecap="round"/>
<path d="M95.6644 119.725L114.147 113.362" stroke="black" stroke-width="2" stroke-linecap="round"/>
<path d="M47.7582 116.025L81.1742 104.334" stroke="black" stroke-width="2" stroke-linecap="round"/>
<path d="M50.7155 122.981L83.9836 110.845" stroke="black" stroke-width="2" stroke-linecap="round"/>
<path d="M63.4312 123.425L83.8356 115.729" stroke="black" stroke-width="2" stroke-linecap="round"/>
<path d="M65.5013 128.308L85.9058 119.577" stroke="black" stroke-width="2" stroke-linecap="round"/>
<path d="M58.8734 132.066L58.411 132.307C56.5243 133.289 54.1987 132.566 53.2006 130.688C52.1674 128.744 52.9597 126.331 54.9442 125.377L55.4141 125.152C57.2592 124.265 59.4755 124.97 60.4689 126.76C61.5249 128.663 60.8035 131.062 58.8734 132.066Z" stroke="black" stroke-width="2" stroke-linecap="round"/>
<path d="M77.6256 76.5119C87.68 72.6148 109.119 64.495 114.442 63.1926" stroke="black" stroke-width="2" stroke-linecap="round"/>
<path d="M76.295 72.3681C92.2637 63.4886 139.046 52.2116 140.466 49.1334" stroke="black" stroke-width="2" stroke-linecap="round"/>
<path d="M74.2249 68.6683C91.5243 59.7888 137.538 47.2687 138.839 44.5457" stroke="black" stroke-width="2" stroke-linecap="round"/>
<path d="M28.3888 75.4754C46.2797 67.3359 128.341 41.2894 136.917 34.6298" stroke="black" stroke-width="2" stroke-linecap="round"/>
<path d="M28.241 71.4799C60.3262 58.3086 126.449 36.0211 135.438 30.9302" stroke="black" stroke-width="2" stroke-linecap="round"/>
<path d="M44.3575 110.105C44.4519 107.272 39.1571 96.9657 34.8847 89.2564C33.3746 86.5316 34.6132 83.0469 37.4549 81.7704C47.1467 77.4168 59.7865 70.5915 66.2405 70.5916C68.6261 70.5916 74.6367 84.4645 78.3875 93.7241C79.3843 96.185 78.2557 98.9818 75.8275 100.056C63.2168 105.632 44.2521 113.269 44.3575 110.105Z" fill="#A0A0A0"/>
<path d="M43.8164 47.3411C42.6324 45.8611 39.6763 46.1571 39.2328 49.2649C38.6414 53.4087 45.8854 50.3009 46.9214 53.4087C48.5593 58.3221 40.3171 57.6511 39.6764 56.3685" stroke="black" stroke-width="2" stroke-linecap="round"/>
<path d="M108.158 22.1411C106.974 20.6612 104.018 20.9572 103.575 24.065C102.983 28.2087 110.227 25.1009 111.263 28.2087C112.901 33.1222 104.659 32.4512 104.018 31.1686" stroke="black" stroke-width="2" stroke-linecap="round"/>
<path d="M47.3342 45.563L56.3507 41.837M52.1628 43.629L56.4138 51.3621" stroke="black" stroke-width="2" stroke-linecap="round"/>
<path d="M96.5135 25.1252L90.7286 27.57C90.4553 27.6854 90.3196 27.9944 90.4193 28.274L93.1231 35.8602C93.2293 36.1583 93.5612 36.3091 93.8554 36.1929L99.8789 33.8139M91.8509 32.4824L97.2215 30.5546" stroke="black" stroke-width="2" stroke-linecap="round"/>
<path d="M76.3517 44.0284L73.0943 36.3296C72.7837 35.5954 72.9178 34.6997 73.6203 34.3233C75.5017 33.3154 77.6516 34.1883 77.5249 36.0044C77.4243 37.4464 77.5777 39.2151 78.9281 39.7311L83.7655 41.5792" stroke="black" stroke-width="2" stroke-linecap="round"/>
<path d="M87.9504 39.4625L84.1379 30.573" stroke="black" stroke-width="2" stroke-linecap="round"/>
<path d="M63.0882 38.1066C65.0662 37.1832 68.0326 38.1927 69.1818 41.2879L69.1952 41.3258L69.2121 41.3621C69.8739 42.7817 69.8823 44.0245 69.5258 45.0558C69.1706 46.0833 68.4243 46.9789 67.4328 47.6479C66.7171 47.9586 65.5228 48.0437 64.357 47.6509C63.271 47.2849 62.2913 46.5341 61.7839 45.2656L61.6893 45.0048L61.6707 44.9488L61.646 44.8957C60.9331 43.3664 60.6648 41.9403 60.8736 40.7889C61.0594 39.7646 61.6355 38.8674 62.839 38.2306L63.0882 38.1066Z" stroke="black" stroke-width="2"/>
</svg>
