<svg width="200" height="119" viewBox="0 0 200 119" fill="none" xmlns="http://www.w3.org/2000/svg">
<path d="M199.418 113.952C202.375 106.137 189.969 108.154 189.54 108.369L188.895 113.952C161.581 118.59 137.144 115.885 128.339 113.952V101.927L105.577 113.952C90.4598 114.983 81.9482 109.796 78.3056 107.725L80.453 100.638L49.9602 112.664L40.0823 106.007C34.857 107.438 22.4738 110.903 14.7433 113.308C7.0127 115.713 9.37481 116.744 11.5222 116.958C72.9371 118.461 196.411 121.897 199.418 113.952Z" fill="#A0A0A0"/>
<path d="M169.355 29.7749C170.07 32.6381 169.784 38.1497 162.912 37.2907C156.041 36.4318 159.047 24.4065 165.275 25.9096" stroke="black" stroke-width="2" stroke-linecap="round"/>
<path d="M140.15 11.0928C150.815 12.1665 174.895 13.369 185.889 9.5896" stroke="black" stroke-width="2" stroke-linecap="round"/>
<path d="M190.613 5.08001L188.924 113.627C188.908 114.662 188.114 115.514 187.081 115.584C172.437 116.576 143.724 117.464 129.848 114.133C128.954 113.919 128.363 113.093 128.396 112.174L132.347 4.0453C132.387 2.95209 133.297 2.09402 134.39 2.11282C144.901 2.29344 167.664 2.28676 188.895 1" stroke="black" stroke-width="2" stroke-linecap="round"/>
<path d="M141.009 107.939C149.241 108.011 167.508 107.81 174.723 106.436" stroke="black" stroke-width="2" stroke-linecap="round"/>
<path d="M89.6866 105.362C90.9751 105.863 94.282 107.123 97.2025 108.154" stroke="black" stroke-width="2" stroke-linecap="round"/>
<path d="M114.167 17.5348C115.813 18.3937 119.535 19.854 121.253 18.8232" stroke="black" stroke-width="2" stroke-linecap="round"/>
<path d="M114.024 7.05651L125.923 11.0949C127.92 11.7728 127.586 14.0951 125.499 13.7903C119.808 12.9591 115.387 10.5998 112.915 8.57812C111.721 7.60153 112.563 6.56076 114.024 7.05651Z" fill="#A0A0A0"/>
<path d="M130.487 22.9033L105.363 113.523C95.7423 115.24 83.4594 110.373 78.5204 107.725C81.7844 95.0122 101.569 33.497 110.731 5.2948L131.346 12.3811" stroke="black" stroke-width="2" stroke-linecap="round"/>
<path d="M96.773 37.9348L87.0592 30.237C86.1555 29.5209 84.835 29.7152 84.1759 30.6613L37.0759 98.276" stroke="black" stroke-width="2" stroke-linecap="round"/>
<path d="M35.1433 101.712L50.3897 112.664L97.632 40.2971" stroke="black" stroke-width="2" stroke-linecap="round"/>
<path d="M2.93264 107.08C4.10012 109.026 6.96023 112.735 9.7875 113.414C10.3351 113.546 10.8792 113.285 11.2583 112.869L72.1225 45.9803C72.9085 45.1165 72.7925 43.7638 71.91 42.9989C70.6587 41.9143 69.1209 40.4734 67.7963 38.9725C66.9634 38.0288 65.4713 37.9221 64.6016 38.832L1 105.363" stroke="black" stroke-width="2" stroke-linecap="round"/>
<circle cx="8.08625" cy="106.007" r="0.85895" fill="black"/>
<circle cx="45.0212" cy="104.289" r="0.85895" fill="black"/>
<circle cx="87.9688" cy="38.5791" r="0.85895" fill="black"/>
<circle cx="66.9244" cy="43.3033" r="0.85895" fill="black"/>
<path d="M66.2804 37.5055L81.5268 33.6402" stroke="black" stroke-width="2" stroke-linecap="round"/>
<path d="M85.6067 29.3454L104.718 23.3327" stroke="black" stroke-width="2" stroke-linecap="round"/>
</svg>
